<svg width="100" height="100" viewBox="0 0 100 100" fill="none" xmlns="http://www.w3.org/2000/svg">
<path d="M25.625 61.2188L23.3281 63.5156L25.5469 65.7344L27.8437 63.4375C29.3025 64.528 31.0104 65.2369 32.8125 65.5V68.75H35.9375V65.5C37.7396 65.2369 39.4475 64.528 40.9063 63.4375L43.2031 65.7344L45.4219 63.5156L43.125 61.2188C44.2155 59.76 44.9244 58.0521 45.1875 56.25H48.4375V53.125H45.1875C44.9244 51.3229 44.2155 49.615 43.125 48.1562L45.4219 45.8594L43.2031 43.6406L40.9063 45.9375C39.4475 44.847 37.7396 44.1381 35.9375 43.875V40.625H32.8125V43.875C31.0104 44.1381 29.3025 44.847 27.8437 45.9375L25.5469 43.6406L23.3281 45.8594L25.625 48.1562C24.5345 49.615 23.8256 51.3229 23.5625 53.125H20.3125V56.25H23.5625C23.8256 58.0521 24.5345 59.76 25.625 61.2188V61.2188ZM26.5625 54.6875C26.5625 53.1423 27.0207 51.6319 27.8791 50.3471C28.7376 49.0623 29.9577 48.061 31.3853 47.4697C32.8128 46.8784 34.3837 46.7237 35.8991 47.0251C37.4146 47.3266 38.8067 48.0706 39.8993 49.1632C40.9919 50.2558 41.7359 51.6479 42.0374 53.1634C42.3388 54.6788 42.1841 56.2497 41.5928 57.6772C41.0015 59.1048 40.0002 60.3249 38.7154 61.1834C37.4306 62.0418 35.9202 62.5 34.375 62.5C32.303 62.5 30.3159 61.6769 28.8507 60.2118C27.3856 58.7466 26.5625 56.7595 26.5625 54.6875ZM67.5625 53.3906L65.3594 51.1875L64.0938 52.4531C63.6045 52.1619 63.0792 51.936 62.5313 51.7812V50H59.375V51.7812C58.827 51.936 58.3017 52.1619 57.8125 52.4531L56.5469 51.1875L54.3437 53.3906L55.6094 54.6562C55.3181 55.1455 55.0922 55.6708 54.9375 56.2187H53.125V59.3437H54.9062C55.061 59.8917 55.2869 60.417 55.5781 60.9062L54.3125 62.1719L56.5156 64.375L57.7812 63.1094C58.2705 63.4006 58.7958 63.6265 59.3437 63.7812V65.625H62.4687V63.8438C63.0167 63.689 63.542 63.4631 64.0312 63.1719L65.2969 64.4375L67.5 62.2344L66.2969 60.9375C66.5881 60.4483 66.814 59.923 66.9688 59.375H68.75V56.25H66.9688C66.814 55.702 66.5881 55.1767 66.2969 54.6875L67.5625 53.3906ZM60.9375 60.9375C60.3194 60.9375 59.7152 60.7542 59.2013 60.4108C58.6874 60.0675 58.2869 59.5794 58.0504 59.0084C57.8139 58.4374 57.752 57.809 57.8725 57.2028C57.9931 56.5966 58.2907 56.0398 58.7278 55.6028C59.1648 55.1657 59.7216 54.8681 60.3278 54.7475C60.934 54.627 61.5624 54.6889 62.1334 54.9254C62.7044 55.1619 63.1925 55.5624 63.5358 56.0763C63.8792 56.5902 64.0625 57.1944 64.0625 57.8125C64.0625 58.6413 63.7333 59.4362 63.1472 60.0222C62.5612 60.6083 61.7663 60.9375 60.9375 60.9375ZM51.5625 64.3438V62.5H48.4375V64.3438C47.7822 64.5771 47.187 64.9533 46.6952 65.4452C46.2033 65.937 45.8271 66.5322 45.5938 67.1875H43.75V70.3125H45.5938C45.8271 70.9678 46.2033 71.563 46.6952 72.0548C47.187 72.5467 47.7822 72.9229 48.4375 73.1562V75H51.5625V73.1562C52.2178 72.9229 52.813 72.5467 53.3048 72.0548C53.7967 71.563 54.1729 70.9678 54.4062 70.3125H56.25V67.1875H54.4062C54.1729 66.5322 53.7967 65.937 53.3048 65.4452C52.813 64.9533 52.2178 64.5771 51.5625 64.3438ZM50 70.3125C49.691 70.3125 49.3889 70.2209 49.1319 70.0492C48.875 69.8775 48.6747 69.6335 48.5564 69.3479C48.4382 69.0624 48.4072 68.7483 48.4675 68.4452C48.5278 68.1421 48.6766 67.8637 48.8951 67.6451C49.1137 67.4266 49.3921 67.2778 49.6952 67.2175C49.9983 67.1572 50.3124 67.1882 50.5979 67.3064C50.8835 67.4247 51.1275 67.625 51.2992 67.8819C51.4709 68.1389 51.5625 68.441 51.5625 68.75C51.5625 69.1644 51.3979 69.5618 51.1049 69.8549C50.8118 70.1479 50.4144 70.3125 50 70.3125Z" fill="#A9B001"/>
<path d="M50 92.1875C58.3439 92.1875 66.5004 89.7133 73.4381 85.0776C80.3758 80.442 85.7831 73.8532 88.9762 66.1445C92.1692 58.4357 93.0047 49.9532 91.3769 41.7696C89.7491 33.5861 85.7311 26.069 79.8311 20.169C73.931 14.2689 66.4139 10.251 58.2304 8.62314C50.0468 6.99533 41.5643 7.83078 33.8555 11.0239C26.1468 14.2169 19.558 19.6242 14.9224 26.5619C10.2868 33.4996 7.8125 41.6561 7.8125 50C7.8125 61.1888 12.2572 71.9194 20.1689 79.8311C28.0806 87.7428 38.8112 92.1875 50 92.1875ZM50 10.9375C57.7258 10.9375 65.2782 13.2285 71.702 17.5207C78.1258 21.813 83.1325 27.9137 86.089 35.0514C89.0456 42.1892 89.8192 50.0434 88.3119 57.6207C86.8047 65.1981 83.0843 72.1584 77.6214 77.6214C72.1584 83.0844 65.1981 86.8047 57.6207 88.3119C50.0433 89.8192 42.1892 89.0456 35.0514 86.0891C27.9137 83.1325 21.813 78.1258 17.5207 71.702C13.2285 65.2782 10.9375 57.7259 10.9375 50C10.9375 39.64 15.053 29.7043 22.3786 22.3787C29.7043 15.053 39.64 10.9375 50 10.9375V10.9375Z" fill="#A9B001"/>
<path d="M49.4063 51.4375C49.5917 51.525 49.795 51.5678 50 51.5625C50.2056 51.5637 50.4095 51.5243 50.5999 51.4465C50.7902 51.3688 50.9634 51.2542 51.1094 51.1094L66.7344 35.4844L64.5156 33.2656L51.5625 46.2344V15.625H48.4375V50C48.439 50.3085 48.5319 50.6096 48.7043 50.8654C48.8766 51.1212 49.1209 51.3203 49.4063 51.4375Z" fill="#A9B001"/>
<path d="M50 98.4375C59.58 98.4375 68.9449 95.5967 76.9104 90.2743C84.8759 84.952 91.0843 77.387 94.7504 68.5363C98.4165 59.6855 99.3758 49.9463 97.5068 40.5503C95.6378 31.1544 91.0246 22.5236 84.2505 15.7495C77.4764 8.97543 68.8456 4.36221 59.4497 2.49323C50.0537 0.624263 40.3146 1.58349 31.4638 5.24961C22.613 8.91573 15.0481 15.1241 9.72569 23.0896C4.40331 31.0551 1.5625 40.42 1.5625 50C1.5625 62.8464 6.66572 75.1667 15.7495 84.2505C24.8333 93.3343 37.1536 98.4375 50 98.4375V98.4375ZM50 4.68752C58.962 4.68752 67.7227 7.34505 75.1743 12.3241C82.6259 17.3031 88.4337 24.3799 91.8633 32.6597C95.2929 40.9395 96.1902 50.0503 94.4418 58.8401C92.6934 67.6298 88.3778 75.7037 82.0408 82.0408C75.7037 88.3779 67.6298 92.6935 58.84 94.4419C50.0503 96.1902 40.9394 95.2929 32.6597 91.8633C24.3799 88.4337 17.303 82.6259 12.324 75.1743C7.34503 67.7227 4.6875 58.962 4.6875 50C4.6875 37.9824 9.46148 26.457 17.9592 17.9592C26.457 9.4615 37.9824 4.68752 50 4.68752V4.68752Z" fill="#A9B001"/>
</svg>
