<svg width="100" height="100" viewBox="0 0 100 100" fill="none" xmlns="http://www.w3.org/2000/svg">
<path d="M84.375 17.1875H79.6875V20.3125H84.375C85.6182 20.3125 86.8105 20.8064 87.6896 21.6854C88.5686 22.5645 89.0625 23.7568 89.0625 25V67.1875H85.9375V25C85.9375 24.5856 85.7729 24.1882 85.4799 23.8951C85.1868 23.6021 84.7894 23.4375 84.375 23.4375H79.6875V26.5625H82.8125V67.1875H78.125V10.9375C78.125 9.6943 77.6311 8.50201 76.7521 7.62294C75.873 6.74386 74.6807 6.25 73.4375 6.25H26.5625C25.3193 6.25 24.127 6.74386 23.2479 7.62294C22.3689 8.50201 21.875 9.6943 21.875 10.9375V67.1875H17.1875V26.5625H20.3125V23.4375H15.625C15.2106 23.4375 14.8132 23.6021 14.5201 23.8951C14.2271 24.1882 14.0625 24.5856 14.0625 25V67.1875H10.9375V25C10.9375 23.7568 11.4314 22.5645 12.3104 21.6854C13.1895 20.8064 14.3818 20.3125 15.625 20.3125H20.3125V17.1875H15.625C13.553 17.1875 11.5659 18.0106 10.1007 19.4757C8.6356 20.9409 7.8125 22.928 7.8125 25V75C7.8125 77.072 8.6356 79.0591 10.1007 80.5243C11.5659 81.9894 13.553 82.8125 15.625 82.8125H42.1875V90.625H34.375V93.75H65.625V90.625H57.8125V82.8125H84.375C86.447 82.8125 88.4341 81.9894 89.8993 80.5243C91.3644 79.0591 92.1875 77.072 92.1875 75V25C92.1875 22.928 91.3644 20.9409 89.8993 19.4757C88.4341 18.0106 86.447 17.1875 84.375 17.1875ZM25 18.75H35.9375V15.625H25V10.9375C25 10.5231 25.1646 10.1257 25.4576 9.83265C25.7507 9.53962 26.1481 9.375 26.5625 9.375H73.4375C73.8519 9.375 74.2493 9.53962 74.5424 9.83265C74.8354 10.1257 75 10.5231 75 10.9375V15.625H64.0625V18.75H75V67.1875H25V18.75ZM54.6875 90.625H45.3125V82.8125H54.6875V90.625ZM84.375 79.6875H15.625C14.3818 79.6875 13.1895 79.1936 12.3104 78.3146C11.4314 77.4355 10.9375 76.2432 10.9375 75V70.3125H89.0625V75C89.0625 76.2432 88.5686 77.4355 87.6896 78.3146C86.8105 79.1936 85.6182 79.6875 84.375 79.6875ZM43.75 73.4375H56.25V76.5625H43.75V73.4375ZM29.6875 10.9375H34.375V14.0625H29.6875V10.9375ZM42.1875 14.0625H37.5V10.9375H42.1875V14.0625ZM68.75 42.1875H71.875V46.875C71.875 47.2894 71.7104 47.6868 71.4174 47.9799C71.1243 48.2729 70.7269 48.4375 70.3125 48.4375H65.0938L68.75 52.125C68.8965 52.2703 69.0127 52.4431 69.092 52.6335C69.1713 52.8239 69.2122 53.0281 69.2122 53.2344C69.2122 53.4406 69.1713 53.6449 69.092 53.8353C69.0127 54.0257 68.8965 54.1985 68.75 54.3438L62.1562 60.9375C62.011 61.084 61.8382 61.2002 61.6478 61.2795C61.4574 61.3588 61.2531 61.3997 61.0469 61.3997C60.8406 61.3997 60.6364 61.3588 60.446 61.2795C60.2556 61.2002 60.0828 61.084 59.9375 60.9375L56.25 57.2812V62.5C56.25 62.9144 56.0854 63.3118 55.7924 63.6049C55.4993 63.8979 55.1019 64.0625 54.6875 64.0625H45.3125C44.8981 64.0625 44.5007 63.8979 44.2076 63.6049C43.9146 63.3118 43.75 62.9144 43.75 62.5V57.2812L40.0625 60.9375C39.9172 61.084 39.7444 61.2002 39.554 61.2795C39.3636 61.3588 39.1594 61.3997 38.9531 61.3997C38.7469 61.3997 38.5426 61.3588 38.3522 61.2795C38.1618 61.2002 37.989 61.084 37.8437 60.9375L31.25 54.3438C31.1035 54.1985 30.9873 54.0257 30.908 53.8353C30.8287 53.6449 30.7878 53.4406 30.7878 53.2344C30.7878 53.0281 30.8287 52.8239 30.908 52.6335C30.9873 52.4431 31.1035 52.2703 31.25 52.125L34.9062 48.4375H29.6875C29.2731 48.4375 28.8757 48.2729 28.5826 47.9799C28.2896 47.6868 28.125 47.2894 28.125 46.875V42.0938H31.25V45.3125H36.75C37.0757 45.3105 37.3938 45.4104 37.6599 45.5981C37.9261 45.7858 38.1269 46.0519 38.2344 46.3594C38.3781 46.7696 38.5451 47.1712 38.7344 47.5625C38.8734 47.8552 38.918 48.1838 38.862 48.5029C38.806 48.8221 38.6522 49.1159 38.4219 49.3438L34.5312 53.2344L38.9531 57.6563L42.8438 53.7656C43.0716 53.5353 43.3654 53.3815 43.6846 53.3255C44.0037 53.2695 44.3323 53.3141 44.625 53.4531C45.0163 53.6424 45.4179 53.8094 45.8281 53.9531C46.1356 54.0606 46.4017 54.2614 46.5894 54.5276C46.7771 54.7937 46.877 55.1118 46.875 55.4375V60.9375H53.125V55.4375C53.123 55.1118 53.2229 54.7937 53.4106 54.5276C53.5983 54.2614 53.8644 54.0606 54.1719 53.9531C54.5821 53.8094 54.9837 53.6424 55.375 53.4531C55.6677 53.3141 55.9963 53.2695 56.3154 53.3255C56.6346 53.3815 56.9284 53.5353 57.1563 53.7656L61.0469 57.6563L65.4688 53.2344L61.5781 49.3438C61.3478 49.1159 61.194 48.8221 61.138 48.5029C61.082 48.1838 61.1266 47.8552 61.2656 47.5625C61.4549 47.1712 61.6219 46.7696 61.7656 46.3594C61.8731 46.0519 62.0739 45.7858 62.3401 45.5981C62.6062 45.4104 62.9243 45.3105 63.25 45.3125H68.75V42.1875ZM40.625 42.1875H43.75C43.75 43.8451 44.4085 45.4348 45.5806 46.6069C46.7527 47.779 48.3424 48.4375 50 48.4375C51.6576 48.4375 53.2473 47.779 54.4194 46.6069C55.5915 45.4348 56.25 43.8451 56.25 42.1875H59.375C59.375 44.6739 58.3873 47.0585 56.6291 48.8166C54.871 50.5748 52.4864 51.5625 50 51.5625C47.5136 51.5625 45.129 50.5748 43.3709 48.8166C41.6127 47.0585 40.625 44.6739 40.625 42.1875ZM70.3125 31.25H68.75C68.4423 27.6819 67.0197 24.3011 64.6837 21.5865C62.3477 18.8719 59.2167 16.9612 55.7344 16.125C55.2296 15.0513 54.4297 14.1434 53.4281 13.5075C52.4265 12.8715 51.2646 12.5338 50.0781 12.5338C48.8917 12.5338 47.7298 12.8715 46.7281 13.5075C45.7265 14.1434 44.9266 15.0513 44.4219 16.125C40.9262 16.9491 37.7793 18.8542 35.4286 21.5696C33.0779 24.285 31.643 27.6723 31.3281 31.25H29.6875C29.2731 31.25 28.8757 31.4146 28.5826 31.7076C28.2896 32.0007 28.125 32.3981 28.125 32.8125V39.0625C28.125 39.4769 28.2896 39.8743 28.5826 40.1674C28.8757 40.4604 29.2731 40.625 29.6875 40.625H70.3125C70.7269 40.625 71.1243 40.4604 71.4174 40.1674C71.7104 39.8743 71.875 39.4769 71.875 39.0625V32.8125C71.875 32.3981 71.7104 32.0007 71.4174 31.7076C71.1243 31.4146 70.7269 31.25 70.3125 31.25ZM43.75 19.5938V26.5625H46.875V18.75C46.875 17.9212 47.2042 17.1263 47.7903 16.5403C48.3763 15.9542 49.1712 15.625 50 15.625C50.8288 15.625 51.6237 15.9542 52.2097 16.5403C52.7958 17.1263 53.125 17.9212 53.125 18.75V26.5625H56.25V19.5938C58.7335 20.4723 60.9203 22.0308 62.5613 24.0916C64.2022 26.1525 65.2313 28.6328 65.5312 31.25H34.4531C34.7418 28.6268 35.7685 26.1392 37.4141 24.076C39.0597 22.0128 41.2567 20.4586 43.75 19.5938ZM68.75 37.5H31.25V34.375H68.75V37.5Z" fill="#A9B001"/>
</svg>
