<svg width="100" height="100" viewBox="0 0 100 100" fill="none" xmlns="http://www.w3.org/2000/svg">
<g clip-path="url(#clip0_137_376)">
<path d="M89.4297 36.4609H83.2422C82.381 32.5357 80.8282 28.7951 78.6562 25.4141L83.0391 21.0312C84.7266 19.3437 84.5547 16.4375 82.6562 14.5391L79.2188 11.1016C78.2722 10.1248 76.9771 9.56291 75.6172 9.53906C75.081 9.5314 74.5487 9.63036 74.0511 9.83019C73.5536 10.03 73.1007 10.3267 72.7188 10.7031L68.3359 15.0859C64.9523 12.9153 61.2089 11.365 57.2812 10.5078V4.32031C57.2891 1.92969 55.1172 0 52.4297 0H47.5781C44.8906 0 42.7109 1.92969 42.7109 4.32031V10.5156C38.7859 11.3734 35.0452 12.9237 31.6641 15.0937L27.2812 10.7109C26.8993 10.3346 26.4464 10.0378 25.9489 9.838C25.4513 9.63817 24.919 9.53921 24.3828 9.54687C23.023 9.57157 21.7283 10.1333 20.7812 11.1094L17.3438 14.5312C15.4375 16.4297 15.2734 19.3359 16.9531 21.0234L21.3438 25.4062C19.1743 28.7877 17.624 32.5283 16.7656 36.4531H10.5703C8.17969 36.4609 6.25 38.6328 6.25 41.3203V46.1719C6.25 48.8594 8.17969 51.0391 10.5703 51.0391H16.7656C17.6252 54.9635 19.1753 58.7039 21.3438 62.0859L16.9531 66.4687C15.2656 68.1562 15.4375 71.0625 17.3438 72.9609L17.6016 73.2187C18.5214 72.6484 19.4707 72.1268 20.4453 71.6562L19.5312 70.7578C19.2196 70.5236 19.0068 70.1814 18.9345 69.7984C18.8622 69.4153 18.9358 69.0191 19.1406 68.6875L25.3359 62.5L23.9844 60.3828C22.0146 57.3122 20.6072 53.9155 19.8281 50.3515L19.2891 47.8906H10.5703C10.0078 47.8906 9.375 47.1797 9.375 46.1484V41.3203C9.375 40.2969 10.0078 39.5781 10.5703 39.5781H19.2812L19.8203 37.1172C20.5978 33.5528 22.0053 30.1557 23.9766 27.0859L25.3359 25L19.1719 18.8437C19.0783 18.7382 19.0083 18.614 18.9665 18.4792C18.9248 18.3445 18.9122 18.2024 18.9297 18.0625C18.9637 17.5641 19.1774 17.0949 19.5312 16.7422L22.9844 13.2812C23.3474 12.8967 23.8466 12.6695 24.375 12.6484C24.5005 12.6414 24.6262 12.66 24.7444 12.703C24.8625 12.7459 24.9708 12.8124 25.0625 12.8984L31.25 19.0859L33.3672 17.7266C36.4368 15.7549 39.8339 14.3473 43.3984 13.5703L45.8594 13.0312V4.32031C45.8594 3.75781 46.5781 3.125 47.6016 3.125H52.4531C53.4766 3.125 54.1953 3.75781 54.1953 4.32031V13.0312L56.6562 13.5703C60.2207 14.3476 63.6178 15.7551 66.6875 17.7266L68.75 19.0781L74.9062 12.9219C74.998 12.8359 75.1062 12.7694 75.2244 12.7264C75.3425 12.6834 75.4682 12.6649 75.5938 12.6719C76.1222 12.693 76.6213 12.9201 76.9844 13.3047L80.4219 16.7422C80.7343 16.9777 80.947 17.3219 81.0178 17.7067C81.0887 18.0915 81.0127 18.4889 80.8047 18.8203L74.6641 25L76.0234 27.1172C77.9974 30.1864 79.4076 33.5835 80.1875 37.1484L80.7266 39.6094H89.4297C90 39.6094 90.625 40.3203 90.625 41.3516V46.2031C90.625 47.2266 89.9922 47.9453 89.4297 47.9453H80.7188L80.1797 50.4062C79.398 53.9706 77.988 57.3674 76.0156 60.4375L74.6641 62.5L80.8281 68.6562C81.0361 68.9876 81.1122 69.385 81.0413 69.7698C80.9704 70.1546 80.7577 70.4988 80.4453 70.7344L79.4531 71.7265C80.4201 72.1972 81.3616 72.7188 82.2734 73.289L82.6562 72.9062C84.5547 71 84.7266 68.1015 83.0391 66.414L78.6562 62.0312C80.8273 58.6497 82.3801 54.9093 83.2422 50.9844H89.4297C91.8125 50.9844 93.75 48.8047 93.75 46.1172V41.3203C93.75 38.6328 91.8125 36.4609 89.4297 36.4609ZM53.6562 74.5C52.6336 74.764 51.5863 74.9211 50.5312 74.9687L51.7266 80.3047L47.5547 83.2265L49.4844 75C48.4335 74.9826 47.3868 74.8623 46.3594 74.6406L42.3047 92.1875C42.1424 92.8688 42.1874 93.583 42.4338 94.2386C42.6801 94.8942 43.1167 95.4613 43.6875 95.8672L46.8125 99.1484C46.8987 99.2405 46.9958 99.3218 47.1016 99.3906C47.9848 99.8414 48.9704 100.054 49.9609 100.008C50.856 100.043 51.7476 99.8776 52.5703 99.5234C52.6834 99.4611 52.7884 99.385 52.8828 99.2969L56.1719 96.2422C56.7794 95.874 57.2567 95.3252 57.5368 94.6724C57.817 94.0196 57.8861 93.2955 57.7344 92.6015L53.6562 74.5ZM45.4375 92.5078L46.5312 87.7734L52.4922 83.5937L53.2266 86.8672C53.1418 86.9067 53.0607 86.9538 52.9844 87.0078L45.4375 92.5078ZM54.4531 93.6015C54.34 93.6639 54.235 93.74 54.1406 93.8281L50.9375 96.7969C50.2471 96.9137 49.542 96.9137 48.8516 96.7969L47.2266 95.0781L53.9688 90.1719L54.6797 93.2969C54.641 93.4234 54.5577 93.5317 54.4453 93.6015H54.4531Z" fill="#A9B001"/>
<path d="M36.8672 68.8828C36.6328 68.6016 36.3984 68.3125 36.1719 68.0234C34.9072 69.8363 32.9889 71.0881 30.8203 71.5156C30.0391 71.6328 12 74.5781 11.0703 88.5703V88.6641C11.0703 88.6953 11.0703 89.4453 10.9453 98.2656C10.9453 98.68 11.1099 99.0775 11.403 99.3705C11.696 99.6635 12.0934 99.8281 12.5078 99.8281C12.9222 99.8281 13.3196 99.6635 13.6127 99.3705C13.9057 99.0775 14.0703 98.68 14.0703 98.2656C14.1797 90.4531 14.1953 88.9531 14.1953 88.6875C14.9766 77.2344 31.1406 74.5781 31.3281 74.5547C34.0792 74.0592 36.5531 72.5721 38.2812 70.375C37.7822 69.9046 37.3101 69.4064 36.8672 68.8828ZM68.8984 71.5234C67.7464 71.284 66.6544 70.8147 65.6879 70.1435C64.7214 69.4723 63.9002 68.6131 63.2734 67.6172C62.599 68.4381 61.8791 69.2205 61.1172 69.9609C62.8675 72.3641 65.4741 74.0031 68.3984 74.5391C68.5625 74.5391 84.7422 77.1953 85.5078 88.7109C85.5041 88.7786 85.5041 88.8464 85.5078 88.9141C85.5078 88.9141 85.9141 91.0938 85.9141 98.3672C85.9141 98.7816 86.0787 99.179 86.3717 99.472C86.6647 99.7651 87.0622 99.9297 87.4766 99.9297C87.891 99.9297 88.2884 99.7651 88.5814 99.472C88.8744 99.179 89.0391 98.7816 89.0391 98.3672C89.0391 91.4844 88.6953 88.9922 88.5938 88.4141C87.6094 74.5703 69.6406 71.6328 68.8984 71.5234ZM68.75 53.0625C70.1875 53.0625 71.2344 52.5781 71.0938 51.2109L70.8828 46.2188C70.7344 44.8672 70.8281 43.7422 69.6875 43.7422H68.6641C68.6641 43.7422 69.8516 35.2734 60.3359 28.7578C60.3359 28.7578 58.6953 24.6484 55.5781 24.2188H44.4219C41.2969 24.6406 39.6641 28.7578 39.6641 28.7578C30.1406 35.2734 31.3281 43.75 31.3281 43.75H30.3672C29.1797 43.75 29.2812 44.8594 29.1328 46.2266L28.9062 51.2031C28.7578 52.5703 29.8047 53.0547 31.25 53.0547H32.6797C33.7268 58.1103 35.975 62.8398 39.2344 66.8438C40.5219 68.3916 42.129 69.6426 43.9455 70.5111C45.7619 71.3795 47.7447 71.8448 49.7578 71.875C52.6436 71.8819 55.4368 70.8566 57.6328 68.9844C62.3203 65.0781 65.5 58.9844 67.1406 53.0625H68.75ZM52.3438 27.3438L51.5625 31.25H48.4922L47.7109 27.3438H52.3438ZM51.5625 41.4063C51.5625 41.7153 51.4709 42.0174 51.2992 42.2743C51.1275 42.5313 50.8834 42.7316 50.5979 42.8498C50.3124 42.9681 49.9983 42.999 49.6952 42.9387C49.3921 42.8784 49.1137 42.7296 48.8951 42.5111C48.6766 42.2926 48.5278 42.0142 48.4675 41.7111C48.4072 41.408 48.4382 41.0938 48.5564 40.8083C48.6747 40.5228 48.875 40.2788 49.1319 40.1071C49.3889 39.9354 49.691 39.8438 50 39.8438C50.4144 39.8438 50.8118 40.0084 51.1049 40.3014C51.3979 40.5944 51.5625 40.9918 51.5625 41.4063ZM55.6172 66.5938C53.9843 67.9893 51.9058 68.7541 49.7578 68.75C48.1992 68.7261 46.6643 68.3645 45.2589 67.6901C43.8535 67.0158 42.611 66.0447 41.6172 64.8438C39.0587 61.7053 37.1948 58.06 36.1484 54.1484L39.0625 55.4688H60.9375L63.5 54.2813C61.7187 59.375 58.9453 63.7891 55.6172 66.5938ZM65.4531 49.9375L60.2422 52.3438H39.7578L34.5547 49.9375H32.1016L32.2344 46.875H34.9219L34.4219 43.3125C34.4219 43.25 33.5938 36.7031 41.4531 31.3359L42.2344 30.7969L42.5859 29.9141C42.9756 28.9082 43.652 28.0389 44.5312 27.4141C44.5243 27.5442 44.5243 27.6746 44.5312 27.8047L45.4531 32.2422C45.5555 32.835 45.8625 33.3731 46.3208 33.7628C46.779 34.1525 47.3594 34.3691 47.9609 34.375H48.4375V36.9922C47.395 37.3608 46.5163 38.086 45.9568 39.0398C45.3973 39.9936 45.193 41.1144 45.38 42.2043C45.567 43.2941 46.1332 44.2828 46.9787 44.9955C47.8241 45.7082 48.8942 46.0991 50 46.0991C51.1058 46.0991 52.1759 45.7082 53.0213 44.9955C53.8668 44.2828 54.433 43.2941 54.62 42.2043C54.807 41.1144 54.6027 39.9936 54.0432 39.0398C53.4837 38.086 52.605 37.3608 51.5625 36.9922V34.375H52.0469C52.6375 34.3548 53.2032 34.1317 53.6486 33.7432C54.094 33.3547 54.3919 32.8246 54.4922 32.2422L55.4141 27.8047C55.4212 27.6746 55.4212 27.5442 55.4141 27.4141C56.3111 28.0283 57.0047 28.896 57.4062 29.9062L57.8125 30.7969L58.5938 31.3359C66.2734 36.5938 65.625 43.0547 65.625 43.3125L64.9844 46.875H67.7734L67.9062 49.9453L65.4531 49.9375Z" fill="#A9B001"/>
</g>
<defs>
<clipPath id="clip0_137_376">
<rect width="100" height="100" fill="white"/>
</clipPath>
</defs>
</svg>
