<svg width="21" height="6" viewBox="0 0 21 6" fill="none" xmlns="http://www.w3.org/2000/svg">
<path d="M1 2.5C0.723858 2.5 0.5 2.72386 0.5 3C0.5 3.27614 0.723858 3.5 1 3.5L1 2.5ZM21 3L16 0.11325L16 5.88675L21 3ZM2 3.5C2.27614 3.5 2.5 3.27614 2.5 3C2.5 2.72386 2.27614 2.5 2 2.5L2 3.5ZM6 2.5C5.72386 2.5 5.5 2.72386 5.5 3C5.5 3.27614 5.72386 3.5 6 3.5L6 2.5ZM12 3.5C12.2761 3.5 12.5 3.27614 12.5 3C12.5 2.72386 12.2761 2.5 12 2.5L12 3.5ZM20 2.5C19.7239 2.5 19.5 2.72386 19.5 3C19.5 3.27614 19.7239 3.5 20 3.5L20 2.5ZM1 3.5L2 3.5L2 2.5L1 2.5L1 3.5ZM6 3.5L12 3.5L12 2.5L6 2.5L6 3.5Z" fill="#D6B409"/>
</svg>
